<?xml version="1.0" encoding="UTF-8"?><svg id="b" xmlns="http://www.w3.org/2000/svg" viewBox="0 0 149.9982 149.9982"><g id="c"><path d="M68.1271,105.8806c.8566.9195,1.6032,2.0747,2.3496,3.1592.8408,1.2101,1.226,2.452,1.9647,3.6465.2988-.3538-.0944.3223.2988-.4088.0944-.1808.1808-.4087.2593-.6052.165-.4008.2829-.6522.4479-1.0451.3223-.7937.6443-1.4304.9819-2.2161,1.6268-3.78,6.02-11.3089,6.5778-12.6763l-19.1279-19.9139c-1.4145-1.6971-2.1376-2.3809-3.4735-4.4085-4.2203-6.4049-8.4717-15.8825-4.6761-23.6234,4.0159-8.181,13.3991-3.2456,17.9493,5.2025.8801,1.6347,1.7838,3.5365,2.4519,5.4382.2827.8017,1.6345,5.9647,1.721,6.0826.7857-1.4068-.4479-8.9433,3.67-11.5996,2.8842-1.8547,7.8352-1.6348,10.0907,3.67,2.2712,5.3674,1.2966,14.8924.385,20.9117-.3379,2.2162-.9981,4.7546-1.2025,6.7978l7.0807-7.8429.1964-.102.1965-.2435.2044-.2359c.7072-1.1789,1.3359-1.9094,2.2005-3.1275,1.9726-2.7819,4.5502-7.7173,5.5797-11.065,2.1217-6.9236.9196-12.9118-4.0788-15.8825-6.5778-3.9059-15.6625-1.2181-20.1106,3.6071-3.3716,3.67-4.0553,7.285-4.5581,12.0866.0785-1.2654-1.5636-6.5228-2.098-7.8743-1.0216-2.609-2.3184-4.7625-3.7329-6.7272-2.7428-3.8194-7.6074-6.9942-12.5348-8.1573-5.9726-1.3989-12.7863.385-16.4013,3.513-3.5756,3.0886-6.4757,6.9316-7.4735,13.4305-1.3125,8.5031.9981,18.0987,6.0905,24.5742.3773.4714.7858.9745,1.1551,1.3989l3.6936,4.1966c.9116.9037,1.8467,1.5245,2.7113,2.405,2.7505,2.7898,7.0651,5.5247,10.2793,7.8429,4.5581,3.2964,7.4843,5.5199,10.9321,9.7917Z" fill="#b41e23" fill-rule="evenodd" stroke-width="0"/><path d="M87.4041,86.0607l.2199-.0629c-.2435-5.0924-1.273-17.7684-4.9509-21.399-1.6974-1.6739-5.0219-.7387-6.562.6443.4794,1.5874,10.3108,18.3342,11.293,20.8176Z" fill="#b41e23" fill-rule="evenodd" stroke-width="0"/><path d="M81.0071,95.7348c1.1081-1.3989,2.1141-3.3401,3.1592-4.8804.6444-.9431,1.0061-1.4145,1.6818-2.3734.4479-.6367,1.4069-1.7368,1.556-2.4206-.9822-2.4834-10.8136-19.2299-11.293-20.8176,1.5404-1.383,4.8646-2.3184,6.562-.6443,3.6779,3.6306,4.7074,16.3066,4.9509,21.399.5973-.7781.7232-.7466,1.171-1.7053.2044-2.0432.8646-4.5816,1.2025-6.7978.9116-6.0196,1.8862-15.5443-.385-20.9117-2.2555-5.3048-7.2065-5.5247-10.0907-3.67-4.1179,2.6563-2.8843,10.1928-3.67,11.5996-.0865-.1179-1.4381-5.2809-1.721-6.0826-.6681-1.9017-1.5718-3.8035-2.4519-5.4382-4.5502-8.4481-13.9337-13.3835-17.9493-5.2025-3.7959,7.7409.4558,17.2185,4.6761,23.6234,1.3359,2.0276,2.059,2.7114,3.4735,4.4085l19.1279,19.9139Z" fill="#fff" fill-rule="evenodd" stroke-width="0"/><path d="M98.1077,12.9668c.3223-.3928.0079-.1493.5187-.4478.3538-.2123.7858-.2123,1.6348-.9196.6916-.5658,1.0295-1.3204.6916-2.279-2.1532.1729-1.2495,1.5638-2.7269,2.2081l-.1414-.6052c-.0471-.7307-.2909-1.5953-1.1631-1.9726-.2829.4479-.4952.9746-.2988,1.8153.1571.6917.4794.3929.5267,1.3281.0079.0394-.0315.2123-.0394.1808,0-.0315-.0315.1259-.055.1885-1.3674-.1414-.951-1.9567-1.5245-2.8684-1.5088.4009-.6993,2.5464-.7151,3.5836-.8252.6287-4.6211.7466-3.3242,2.2396.2908.2829-.4479.2515.5187.2515.5187,0,1.0925-.7073,1.3754-.9272,2.8842-2.2556,5.2574.4087,7.505.0394l.0785-.9587c-.5658-.4008-.6681-.3614-1.4618-.4479-.1809-.0235-.6443-.055-.7937-.0944-.5817-.1414-.4479-.1964-.6052-.3143l-.0003.0002h0ZM4.3923,74.422c0-13.5482,4.9116-29.5722,12.6919-39.8594l1.8703-2.609c2.5225-3.2692,5.1159-6.452,8.236-9.0377,6.4364-5.3439,9.6191-8.2202,18.2716-12.2046,9.682-4.4637,19.1911-6.4205,30.814-6.4205,15.2853,0,30.1541,5.8233,41.6514,14.5466l6.8843,5.9176c2.3496,2.287,5.847,6.5307,7.8273,9.4462,2.609,3.8429,4.3852,6.5148,6.3654,10.9,3.6151,8.0082,6.562,18.0437,6.562,28.0401,0,13.0059-1.666,20.6838-6.6014,31.8432-.8722,1.9647-1.9726,3.89-3.0257,5.7133-2.7898,4.8489-7.2065,10.6407-11.2929,14.5071-2.7269,2.5855-4,3.7959-6.9627,6.0435-21.0459,15.9925-48.2919,18.8532-72.3787,7.8982-1.9582-.8827-3.888-1.9004-5.7337-3.0022-6.3499-3.7959-5.6112-3.8979-10.2634-7.2221l-7.5523-7.5915c-.4403-.5108-.5973-.5423-1.006-1.1316-.6838-.9822-2.1691-2.397-3.8036-4.9195-2.1926-3.3715-4.6131-7.0807-6.3105-11.175-4.0473-9.745-6.2399-17.9337-6.2399-29.6825l-.0034-.0002h0ZM69.7851,2.2788l-.0003-.0003c10.5854-1.0375,22.358,1.1631,31.2933,4.6287,4.3302,1.6818,8.6054,3.7644,12.244,6.0905,2.2082,1.4069,7.1198,4.7546,9.2103,6.7743,3.6071,3.505,6.7428,6.2164,9.9885,10.4836,8.3225,10.9471,14.358,25.1793,15.0967,39.4745.6052,11.7722-.8645,21.3755-4.6366,31.3718-1.5483,4.0865-6.0591,13.0533-8.9119,16.4719l-3.9449,5.006c-.4164.5346-.4635.6681-.9822,1.1474-.8564.7861-1.4145,1.5877-2.2632,2.4285-2.3026,2.2946-4.731,4.3143-7.2536,6.3969-6.224,5.1398-16.1181,10.1222-23.8983,12.3304-16.1969,4.5896-31.4504,3.9609-46.8536-1.8388-7.1436-2.6875-9.6032-4.5578-15.1044-7.9294-2.7113-1.6582-4.9904-3.9843-7.4424-5.9726-1.6976-1.375-3.2456-2.8369-4.6525-4.5187l-5.2339-6.2869c-.3067-.4717-.6366-.9825-.951-1.3989-.6996-.9272-1.1474-1.5874-1.8312-2.6405-6.0278-9.2888-10.633-21.9966-11.2853-34.1226-.998-18.3263,3.2692-32.1185,12.6054-46.4448l8.1496-9.9729c1.061-1.2024,8.1496-7.3009,9.9414-8.401l5.4539-3.4971c9.9258-5.6583,18.6332-8.354,31.2622-9.58Z" fill="#fff" fill-rule="evenodd" stroke-width="0"/><path d="M19.7799,73.7779c0-7.6308,2.1532-15.8669,5.0139-21.8945,2.672-5.6268,7.7724-13.3676,12.7078-17.5722,1.7997-1.5404,3.7094-3.2222,5.5482-4.4796,2.5384-1.7368,5.3833-3.5836,8.464-4.951,9.0768-4.0315,14.9079-5.171,25.1949-5.171,10.8136,0,20.9829,3.9765,29.486,9.6035l4.7939,3.7409c1.1551,1.1551,2.3341,1.8938,3.4501,3.1436.5266.5893,1.0924,1.2575,1.6424,1.7918.8407.8172.888,1.0295,1.5244,1.8782.5267.6917.9902,1.1946,1.5168,1.9018,6.9237,9.2027,11.1045,20.4562,11.1045,32.6528,0,13.9099-3.9529,23.6863-11.3088,34.1777l-3.1122,3.7014c-1.7212,2.0747-6.9786,6.5858-8.9354,7.8903-10.688,7.1356-19.8198,10.0513-33.5724,10.0513-10.7901,0-22.0595-4.2908-30.272-10.1457-2.7113-1.9333-5.0769-4.0238-7.238-6.2005-2.7113-2.7349-3.8429-4.3932-6.1376-7.3009-.9116-1.1552-1.8547-2.7899-2.6404-4.1729-5.0295-8.7545-7.2301-17.8708-7.2301-28.645h0ZM28.3065,43.1839l.1259.1729s-.0394-.0315-.0394-.0471c0-.055-.055-.1652-.0865-.1258h0ZM28.5424,43.2389c-.063-1.9962-1.0687-2.8999-1.0296-4.4558,1.391-.6681,3.3007-.4873,3.5442-2.1455-1.0845-1.1866-3.5521-.1571-4.3773.6601-.3849,1.8627.5029,1.5798.0865,3.3322-2.6955-.4873-.8408-4.7152-1.0925-5.1475-.8801-1.5324-2.0747,1.2889-2.0747,1.2889-.8722-.3143-.7151-.2043-.1099-2.8292.5422-2.342,1.3045-3.9923-.6994-4.0788-.6443-.0314-.8645.0709-1.3439.2988-.4637,1.3909.7152,2.2082-.1335,2.8842-.7387.3379-.4637.0709-1.2965-.047-1.1475-.1571-1.2416.0709-1.5719.4087.055.6208,2.0197,2.0118,2.617,2.6329,1.8232,1.8782.9745,1.5482,1.1475,4.2516l1.171,1.1396c1.6109-.4164,2.0826-1.1396,2.4599.7387.2673,1.3359,1.0295,2.3496,2.5069,1.383-.6602,2.0197-5.4932,7.2145-8.2281,19.6311-4.2517,19.3243,2.4049,38.7748,15.7331,52.1504,1.9491,1.9491,5.3989,4.5972,7.8194,6.2478,18.5939,12.6213,44.598,13.1871,63.915-.8722,5.6268-4.1023,9.9729-8.464,13.8708-14.2793,7.8038-11.6308,12.3775-28.0871,8.0002-44.9518-1.9412-7.4659-5.9961-16.1025-10.2399-21.1008-3.8508-4.5346-7.7093-8.676-12.8018-11.9296-5.7526-3.6859-11.5523-6.6957-19.5211-8.3852-13.4852-2.8683-28.3226-.7307-40.0399,6.3185-4.6446,2.7898-10.1928,6.9077-13.5249,11.01-.5344.6523-1.1552,1.171-1.7368,1.8703-.4714.5737-1.0137,1.3754-1.4539,1.9726l-1.2654,1.7054c-.33.3614-.1494.1414-.33.2987l-.0005-.0008h0ZM126.4542,35.9065c.1099.9431.1414,1.0687,1.0845,1.3045,1.0766.2752,1.328.2594,1.5559-.5579-.0076,0-2.4834-.7151-2.6404-.7466h0ZM126.6429,31.3719c-1.0845,1.5874-1.6659.3379-2.8133.4638l-5.0454,2.9942c-.6208.5343-1.8077,1.218-1.438,2.2632.0943.0394-.0786.6443.9666-.1494l2.7034-2.2241c.896-.7387,2.8998-2.4205,3.9529-1.053-.3144.4164-.3929.3773-.6993.8095.1808,1.611,1.8626,1.9568,1.2101,2.9784-.0785.055.2514.4637-.6367.0865-.4793-.2044-2.0432-1.9568-2.0905-.5029-.0156.5817.9195,1.163-1.0846,1.0925-1.273-.0471-1.5324-.1259-1.5559,1.1865l1.8547.0944c-.0864,1.4933-.4714,2.3811.5267,3.6545.7858.998,3.8664,2.554,3.835-.6993-1.9332-.173-1.8547.8407-3.4027-.4873-.1809-1.6189.1885-1.3595,1.3045-1.7683.0314-.047.0708-.1808.0785-.1494l.3929-.6757,1.7212.0629c.2435-.3614.4087-.7467.5108-1.226,2.3811-.1335,3.2301,1.3045,4.1417.0315.6522-1.0296-.2123-1.2495-.5267-2.3576.4952-.9116,1.5009-1.9097.2358-2.8998-1.1551.2829-.4637,1.2259-2.3025,1.9017-.5344-.6522-.2515-.4479-.5108-1.2654-1.0137-.055-.5423.4009-1.4145-.0785.3379-.7937,1.8311-1.8153,1.0451-3.1748-.2044-.3693-.9745-.9745-1.2966-.3379-.2279.4558.4558.6367.3379,1.4304l-.0003-.0006Z" fill="#fff" fill-rule="evenodd" stroke-width="0"/><path d="M51.4585,14.3578l.6129,1.9412c.9901-.4244.4793-.8331,1.6188-1.2025.5579.4164.3694.3223.7152.9196l.9116-.1179c.6443-1.4225-.0235-1.234.5108-2.1612.063.1021.5738-.1494.1729,1.5245-.7387,3.0648-4.3537,6.7822-4.4166,8.1102,1.6033-.8487,5.5797-5.7368,5.5168-8.9118l-.0156-1.1631c.4164-.3773.5737-.3849.8722-.9666l-1.4224-1.3989-.2515.7543c-.0079.0708,0,.1335-.0156.2044l-.1099.5578c-.6052.0785-.7232.5973-1.0061-1.7997-.1179-.9745-.102-1.7133-.5658-2.334-1.7761.2749-.6443,1.8547-.5816,3.5835.0785,2.0591-2.0276,2.2082-2.5464,2.4599l.0003.0003h0ZM94.8856,19.6546c-.3615.1179.4322.1965-.4403.0709-.0079,0-.3299-.11-.4402-.1571.1415-1.2101,1.1866-.943.8802.0865l.0003-.0003h0ZM94.2177,15.7411l.6287.3773c.0394.0235.11.055.1494.0785l-.1494,1.6974-2.0826.2514c-.157,1.281.2988,2.727.9902,3.3792,1.3518.165,1.9332-.5187,2.3969-1.4459,1.1475-2.2556,1.5483-.1415,1.7054-2.2791-.6838-.1335-1.1002-.11-1.6424-.4402.5108-1.4145,1.3518.0629,1.6424-1.7683-.5894-.3378-3.4815-1.1551-3.6386.1494v.0003h0ZM23.0177,118.3054l.4008.6208c1.3203-1.006,2.9942-3.0648,4.3143-3.7409-.1809,1.8547-1.9332,5.8076-1.273,7.2221.6681-.0785,2.2081-1.6347,2.8527-2.2082.4873-.4402.7623-.8251,1.289-1.2654.4952-.4164.9195-.7072,1.3124-1.1474l-.3538-.5738c-1.5324,1.0687-2.8448,2.8843-4.4481,3.898.4402-2.3891,1.9962-6.4914,1.226-7.403l-5.3203,4.5972v.0006h0ZM93.3846,138.8087c-1.163-.5973-1.9097-1.5483-2.9548-2.397-.5658-.4638-.7467-.6367-1.3281-1.2025-.4243-.4087-.9272-1.006-1.5324-.896-.1808.3538-.5266-.7152.1259,1.6659.3929,1.438.9431,4.794,1.5797,5.3204.6208-.3614.6523.4164-.1335-2.5305-.2987-1.116-.6287-2.0118-.7701-3.1357,1.9252.8172,4.3852,4.5816,5.902,4.3852.047-.9272-.9511-4.1652-1.281-5.5403-.2829-1.171-.0709-1.5324-1.0451-1.2654l1.438,5.5953-.0006.0006h0ZM36.2518,129.441l.0002.0003c-3.725-.1179-6.1693-3.4656-3.3086-6.4519,2.617-2.7193,6.3185-.3773,6.0276,2.2161-.0708.6599-.0944.6287-.5266.7308-.5579-.5423-.2121.1729-.2435-.9431-.0236-.7387.0235-1.5245-1.3989-2.3026-1.3204-.7152-2.7349.0076-3.3951.7543-2.0588,2.3576-.7072,5.0768,2.5384,5.2733l.8487-1.2181c-.5737-.5972-1.006-.9037-1.6582-1.3439.1808-.3458.1729-.4087.3458-.6287.7072.5735,1.7288,1.1237,2.3026,1.9253-.2121.102-1.3045,1.5795-1.5324,1.9882h0ZM116.9689,119.704c.3537-.6916,2.2005-2.9863,3.4421-1.7838,1.1866,1.163-.9981,3.0571-1.8312,3.458l-1.6109-1.6739v-.0003h0ZM116.0022,119.657c.8252.7151,1.6504,1.7053,2.4835,2.5384.8722.8722,1.6503,1.6818,2.5149,2.499l.4323-.33-2.1456-2.2711c.8646-2.3496,3.1042-1.2101,5.1475-.8407l.6051-.6367c-1.4068-.2673-2.4834-.6837-3.9843-.5737,1.226-2.6955-.6917-3.4342-1.6739-3.2851-.9037.1335-2.9863,2.397-3.3792,2.8999h-.0003ZM48.7945,137.5356c.8646.0156.6837-.3299,1.0216-1.2809.1809-.5188.4558-1.179.6052-1.7289l3.8585,1.383-1.1789,3.2457c1.0375.2594.7231.0785,1.8232-2.8998.2359-.6367,1.3675-2.9863,1.124-3.6386-.7467-.1885-.9746.8646-1.4619,2.6484l-3.772-1.336c.1964-1.2259.7543-2.1532.8172-2.4834.165-.8172.2673-.2829-.2829-.6287-.6052.2829-2.7269,6.3419-2.554,6.7192h0ZM23.442,108.6075l-1.9253,2.8449c-.5108-.3929-1.2889-1.611-1.4145-2.1691l3.3401-.6758h-.0003ZM16.6207,109.6841h.0003c.212-.5896-.5188-.2517.7387-.5817l6.6798-1.3045.4009.5502c-.275.8802-3.6151,5.6897-4.3223,6.5149-.6367-1.1475.5029-1.5009.9272-2.6799-.4558-.8487-1.2104-1.8073-1.5718-2.6719-.6917.0626-1.0375.165-1.6268.275-.9352.1729-.6367.2437-1.226-.1021h0ZM12.1961,100.6782c.3929.2199-.4402.5422,1.5245-.3538.6208-.275,1.2101-.5502,1.8938-.7622.4008,1.3045,1.2339,2.3655,1.5245,3.78l-3.0257,1.3045.2514.6287c1.1316-.4323,2.2632-1.0216,3.4265-1.5168,1.2101-.5188,3.3557-1.2181,2.8999-1.7604-.2829-.3378-.6443-.0629-1.2339.228-.5188.2593-.9352.4478-1.5639.6366-.5267-.5972-1.5324-3.0178-1.7133-3.6859.6758-.2199,2.4755-.8722,2.6878-1.4303-.4164-.4088.22-.6129-1.7212.2514l-4.4166,1.9726c-.9902.5108-.4164-.0394-.5344.7073l.0006.0003h0ZM109.2042,125.0638l-.0003-.0006c1.0925-1.0137,2.444-1.7997,3.5915-2.7819l.4402.4558c-.9431.7387-1.9173,1.6741-3.0098,2.1455.275.9587.8096,1.548,1.4224,2.0982.8173-.322.8408-.4872,1.5874-1.0451,1.124-.8331,1.0687-.9666,1.3675-.6837.7701.7466-1.5089.9666-2.5305,2.5699.6837.7701.9587,1.053,1.3989,1.9411.8487-.322,1.2886-.7387,1.9567-1.2101.2829-.1888.6364-.5108.8408-.6602.6758-.4872.6681-.2199.7702-.1885.0158.0709.511-.102-.1571.5738l-3.5835,2.4755-4.0944-5.6897h0ZM62.6023,135.2486l.6444,3.4816-2.6014-.4479c.3379-.9822,1.2495-2.2711,1.9568-3.0334l.0002-.0003h0ZM58.1698,140.7342c.9431.063.9196-.047,1.9332-1.8626l3.3478.6128c.1649,1.3046.0079,2.4755,1.218,2.4676l-1.5168-7.2536c-.1885-.3849-.0235-.11-.2988-.3693-.896.047-.3064-.3379-1.438,1.3753-.3773.5658-.6993,1.0611-1.116,1.6583-.5423.7858-1.8233,2.5464-2.1297,3.3715h.0003ZM40.6919,130.9422c-1.5403,2.2556,2.1456,4.6761,3.8744,3.2613,2.5935-2.1217-2.279-3.9294-1.5244-5.5876.4952-1.0846,2.8919-.8173,2.9548.8722.0394,1.0375-.5502.7387.5737,1.1239.3065-1.5639-.2043-2.9469-2.059-3.2613-2.1532-.3614-2.8449,1.8468-1.6583,3.1437.5108.5658,1.163.8566,1.4853,1.5168.4558.9351.0471,1.8312-.8801,1.9647-.8646.1258-1.7524-.4402-2.0906-.9116-.9586-1.3595.5894-1.5483-.6758-2.1218v-.0003h0ZM126.0063,116.1754h-.0003c.7228-1.1315.6208.1888,2.1847-.4164,1.7209-.6681,1.5874-4.0314-.6602-3.0492-.6599.2829-1.1081.8958-1.6974,1.3045-1.4539,1.0216-3.4657-.157-2.8213-2.1847.4243-1.328,2.177-2.5934,3.4815-1.3674-.7937.896-1.0296-.4008-2.2241.4952-.5343.4008-.8878,1.3283-.5578,2.1456.7231,1.3674,2.1925-.0709,2.9157-.6367,1.0845-.8566,2.279-.9745,3.0963.1885,1.1709,1.6503-.9823,5.0689-3.7171,3.5206h0ZM12.6205,94.6897c-.5579-.9746-2.2632-.063-2.5935-2.3811-.4402-3.1122,4.5973-4.1023,5.7997-1.9412.2988.5343.4873,1.336.2044,1.9882-.4714,1.0687-.9981.5108-.8331,1.6424,2.7819-.157,1.9726-7.1042-3.2771-5.2809-5.5953,1.9332-.6444,7.7958.6993,5.9726h.0003ZM82.8068,135.1151c-.4952.2988-.3537.0471-.3928.7308-.1021,1.6739,1.5244,5.9335-1.4854,6.1455-2.7584.2044-2.1455-2.6013-2.6013-6.4678-1.1316.0315-.6682.9196-.3459,4.1888.4323,4.4322,5.5248,3.4735,5.5248.2199,0-.8881-.1415-1.7053-.2124-2.5699-.1099-1.3989.055-2.0432-.4872-2.2476l.0002.0003h0ZM11.2295,73.9035c-.9272.2594-1.1551-.0785-2.177-.0156.4323.33.9431.8878,1.438,1.2807l-.8016,2.0353,1.8076-.8331,1.6109,1.3124-.3064-1.9803,1.7053-1.0295c-.3693-.2279.3615.0156-.4714-.2123l-1.053-.1882c-.7073-.2515-.5344-.3929-.8487-2.0668l-.9037,1.6974h0ZM106.4302,133.8262c-.1258-.2673-1.9411-1.8312-2.499-2.389-1.0687-1.0687-1.9962-2.0512-2.9313-1.7524.22.5029,2.3026,2.2632,2.8369,2.6955.7781.6207,2.2632,2.5384,3.1827,2.287.4164-.7232-.0864-2.7505-.2435-3.945-.1493-1.0925-.102-2.9393-.6681-3.7094-.6366.4558-.5108.1885-.3614,1.3595.1729,1.3518.8252,4.4322.6837,5.4538h0ZM137.5115,73.99c-.6522.4476-1.2339.377-2.1061.534.5029.275,1.2889.7073,1.7524,1.171l-.3144,1.9253,1.6033-1.3124,1.8232.9272-.8407-2.0827,1.5168-1.2886-2.0197.1494-.9745-1.8468-.4403,1.8233v.0003h0ZM136.4114,92.2456c-2.3026.5579-3.8035.7623-3.8035,1.9018.8566-.3693,2.7663-.9037,3.7565-1.1866,1.5559-.4402,3.0098.7623,3.772.4479.0235-.7622.6443-.4323-1.4853-1.006-1.1631-.3064-1.2416-.1494-1.8547-.9196-.8487-1.0845-1.7762-1.9332-2.4361-3.0648-.0156.0156-.7152.1885-.2829.8722.1179.1809.5816.6682.7857.9272,1.0296,1.3281,1.2025,1.124,1.5483,2.0277v.0002h0ZM129.7628,101.6918c.2749-.0708.4793.4558,1.0295-1.7762,1.438.2044,5.1083,2.2162,5.7056,2.3341.8095.165.2123.2987.6602-.2988-.4559-.6052-4.7702-2.3185-5.8862-2.7899.5658-2.059,1.2025-1.5638.4088-2.232-.3614.2359-2.3497,4.0944-1.9177,4.7625l-.0002.0003Z" fill="#fff" fill-rule="evenodd" stroke-width="0"/><path d="M50.0831,16.0711c.11,1.4224-.3299,2.4361.5738,3.4735l.6993-.1099c.2358-.4953.2749-1.4619.4087-2.0277.22-.9586-.2829-.6916-1.0766-.5266-.0785-1.0531.7152-3.1437-2.334-3.0963-.008,1.9726.5578,1.4303,1.7288,2.287h0ZM127.3187,105.4092c.2909.4402,5.3833,3.3715,6.1691,3.6859l.2673-.5267c-.5108-.4873-5.6977-3.4892-6.2479-3.5442l-.1885.385h0ZM99.6716,138.1329c.5028-.3223.7072.2279-.008-1.5718l-1.4539-3.67c-.4243-1.124-.3693-1.4539-.9586-1.5954-.4088.4008-.3459-.2199-.2044.6208.0079.0709,2.232,5.8547,2.6249,6.2164h0ZM49.9652,10.3028c-.4558,1.2731.7308,2.1847,1.9097,1.9177.8016-1.1395-.7387-2.3497-1.9097-1.9177Z" fill="#fff" fill-rule="evenodd" stroke-width="0"/><path d="M96.4732,75.8679l-.2043.2359-.1965.2435-.1964.102-7.0807,7.8429c-.4479.9587-.5737.9272-1.171,1.7053l-.2199.0629c-.1494.6838-1.1081,1.7839-1.556,2.4206-.6758.9586-1.0375,1.4303-1.6818,2.3734-1.0451,1.5403-2.0511,3.4815-3.1592,4.8804-.5578,1.3674-4.951,8.896-6.5778,12.6763-.3376.7857-.6599,1.4224-.9819,2.2161-.165.3929-.2829.6443-.4479,1.0451-.0785.1965-.165.4244-.2593.6052-.3929.7308,0,.055-.2988.4088-.7387-1.1945-1.124-2.4361-1.9647-3.6465-.7467-1.0845-1.4933-2.2397-2.3496-3.1592-.6092-.7552-2.304-2.2533-3.1516-3.0646-4.5816-3.8429-9.4382-6.5933-15.2617-8.8409-6.0906-2.3497-18.201-4.7861-25.5646-4.2752l.275.2987c.0394.0236.0944.0865.1414.1259,1.4225,1.1316,5.1554,2.3184,6.3893,6.6563,3.5836.3064,7.1751-.4873,14.0437.3849,24.1421,3.0413,25.5881,16.024,27.4428,17.5488.8251-.3538,1.3595-2.2241,1.98-3.5365,2.9863-6.3264,5.8785-13.1321,10.2634-18.9633l1.8782-2.3811c4.0944-4.2122,6.3184-7.2379,12.079-10.3028,3.835-2.0432,7.8744-3.505,12.1655-4.676,3.505-.9507,6.1375-1.0684,9.8864-1.4065.6681-2.672.4952-4,1.8076-6.507.5502-1.0451.9666-1.7917,1.5404-2.7269.6522-1.0531,1.4538-1.3518,1.8861-2.444-8.731.2673-16.9356,4.5972-23.4978,9.1791l-5.957,4.9193-.0003-.0009Z" fill="#0f559c" fill-rule="evenodd" stroke-width="0"/><path d="M116.898,88.4421c.9981-4.4008,2.7113-5.9255,4.9195-8.2202-27.4646-1.5587-40.79,21.2627-49.1638,40.8186-.9587-1.3753-2.3026-5.7291-4.2279-8.2437-2.3655-3.0886-3.1198-3.78-6.5542-6.0276-9.3283-6.1219-20.3621-5.5247-31.1522-4.7466.9431.7937,2.3655,1.336,3.3636,2.0668,1.0845.7937,1.8232,1.7603,2.3969,3.1436,4.1259-.2673,13.7135-4.8881,22.9791-.6052,3.1198,1.438,2.6249,1.4853,4.4637,2.7663,2.8528,1.9803,5.6506,6.3105,7.1042,9.7606.4008.943.9037,2.4834,1.3125,3.2771.888-.2594.6287-.3144,1.0924-1.3595,1.4457-3.2851,3.4577-7.7173,5.1472-10.6407,1.2024-2.0826,2.224-3.8035,3.4735-5.6976l1.9097-2.5699c7.9731-11.1626,19.8454-14.5531,32.9361-13.7214l-.0003-.0006h0ZM116.9689,119.704v-.0003c.3534-.6913,2.2005-2.9863,3.4421-1.7838,1.1866,1.1633-.9981,3.0571-1.8312,3.458l-1.6109-1.6739h0ZM62.6023,135.2486c-.7072.7623-1.6188,2.0512-1.9567,3.0334l2.6013.4479-.6443-3.4815-.0003.0002h0ZM20.1019,109.2836c.1259.5578.9037,1.7762,1.4145,2.169l1.9253-2.8448-3.34.6758h.0002Z" fill="#0f559c" fill-rule="evenodd" stroke-width="0"/><path d="M74.9991,0c41.4207,0,74.9991,33.5784,74.9991,74.9991s-33.5784,74.9991-74.9991,74.9991S0,116.4198,0,74.9991,33.5784,0,74.9991,0h0ZM74.9991,1.7918C34.568,1.7918,1.7918,34.568,1.7918,74.9991s32.7762,73.2073,73.2073,73.2073,73.2073-32.7762,73.2073-73.2073S115.4302,1.7918,74.9991,1.7918Z" fill="#0f559c" fill-rule="evenodd" stroke-width="0"/><path d="M74.9991,4.0669c39.1745,0,70.9322,31.7577,70.9322,70.9322s-31.7577,70.9322-70.9322,70.9322S4.0669,114.1736,4.0669,74.9991,35.8246,4.0669,74.9991,4.0669h0ZM74.9991,18.6568c-31.117,0-56.3423,25.2253-56.3423,56.3423s25.2253,56.3423,56.3423,56.3423,56.3423-25.2253,56.3423-56.3423-25.2253-56.3423-56.3423-56.3423Z" fill="#0f559c" fill-rule="evenodd" stroke-width="0"/><path d="M74.9991,19.927c15.2073,0,28.9755,6.1645,38.9415,16.1306,9.9661,9.966,16.1306,23.7342,16.1306,38.9415s-6.1645,28.9755-16.1306,38.9415c-9.966,9.9661-23.7342,16.1306-38.9415,16.1306s-28.9755-6.1645-38.9415-16.1306c-9.9661-9.966-16.1306-23.7342-16.1306-38.9415s6.1645-28.9755,16.1306-38.9415c9.966-9.9661,23.7342-16.1306,38.9415-16.1306h0ZM113.1628,36.8354c-9.7668-9.7668-23.26-15.808-38.1637-15.808s-28.3969,6.0412-38.1637,15.808-15.808,23.26-15.808,38.1637,6.0412,28.3969,15.808,38.1637,23.26,15.8079,38.1637,15.8079,28.3969-6.0411,38.1637-15.8079c9.7668-9.7668,15.808-23.26,15.808-38.1637s-6.0412-28.3969-15.808-38.1637Z" fill="#0f559c" fill-rule="evenodd" stroke-width="0"/><path d="M12.223,93.8433l.0236.9796c-.8034.0176-1.4687-.1675-2.0004-.5542-.5313-.3869-.8975-.9388-1.0971-1.6568-.2063-.7416-.2236-1.3873-.0496-1.9375.1724-.5496.5125-1.025,1.0182-1.4267.5074-.4022,1.0885-.6953,1.747-.8787.7178-.1996,1.3819-.2373,1.9931-.1114.6111.1258,1.1256.4031,1.5443.8314.4184.4286.7115.9476.8801,1.5545.192.6902.1786,1.3187-.0428,1.8853-.2208.5687-.6227,1.033-1.2069,1.3947l-.4612-.8374c.4566-.2982.7579-.6327.9017-.9995.1448-.3673.1527-.7812.0246-1.2424-.1471-.5281-.3974-.936-.7497-1.22-.3524-.2846-.764-.44-1.2308-.4641-.4689-.0252-.9307.0255-1.3851.1517-.5862.1633-1.0746.3909-1.4641.6826-.3908.2919-.6431.6474-.7599,1.0675-.1168.4198-.1162.8385.0003,1.2577.142.5106.4096.8997.8016,1.1713.3937.2713.8969.3889,1.5131.3524h0ZM11.5864,99.8757l6.5236-2.9512.3915.8654-2.6878,1.2158,1.525,3.3713,2.6878-1.2158.3915.8654-6.5237,2.9511-.3914-.8654,3.0705-1.3892-1.5251-3.371-3.0705,1.389-.3914-.8654h0ZM15.8468,108.7898l7.5175-1.5149.5582.8796-4.4856,6.2963-.5777-.9107,1.389-1.8615-1.6149-2.5464-2.2482.5065-.5383-.8489h0ZM19.433,108.9547l1.3067,2.0608,1.2762-1.6937c.3892-.513.7191-.9235.9876-1.2339-.4468.1667-.9043.3011-1.3754.4045l-2.1951.4623h0ZM22.0584,117.7702l.591.692,4.2735-3.6502-1.8337,6.5066.6321.7401,5.4445-4.6499-.5907-.6919-4.2735,3.6498,1.8334-6.5066-.6321-.7401-5.4445,4.6502h0ZM33.6754,125.5006l.5127-.6653,2.3998,1.8499-1.6197,2.1013c-.5944.0091-1.1454-.0621-1.6514-.2163-.506-.1545-.9655-.3912-1.3774-.7084-.557-.4294-.9711-.9379-1.2424-1.5278-.271-.5874-.349-1.1991-.233-1.8273.1156-.6307.3883-1.2242.8166-1.7801.4252-.5516.9369-.978,1.5373-1.279.5992-.3002,1.2044-.3997,1.8153-.2971.6123.1015,1.2007.3702,1.7657.8056.409.3155.729.6673.9578,1.0559.2285.3887.3464.7739.3515,1.1549.0054.3829-.091.803-.2871,1.26l-.8198-.3373c.1358-.3538.2055-.6622.2083-.9256.0006-.2624-.0777-.5326-.2361-.8127-.1573-.2792-.3787-.5297-.665-.7506-.3422-.2636-.6783-.4388-1.0097-.5278-.33-.0881-.6364-.1051-.923-.0527-.2843.0522-.5476.1482-.7889.2863-.4155.2415-.7812.5655-1.0975.9762-.3909.5069-.6305.9978-.7209,1.4729-.0884.4748-.0303.9238.1738,1.3442.2055.4215.4941.7761.8677,1.0641.3245.2503.6902.4312,1.0958.5437.4065.1117.743.1582,1.0137.1375l.8189-1.0627-1.663-1.2818h0ZM39.2168,130.275l.8101.3767c-.1442.3325-.2072.6369-.189.915.019.2767.1329.5587.3424.8453.2103.2857.4915.5315.8436.7353.3129.1811.6151.2945.9088.3396.2939.0445.5456.019.7565-.0762.2115-.0953.3734-.2384.4836-.4289.112-.1934.1534-.3946.1253-.6055-.0292-.2095-.1448-.438-.3469-.688-.1293-.1596-.4386-.4734-.929-.9405-.4901-.4669-.8141-.8257-.9717-1.0789-.2055-.3271-.3126-.6474-.3243-.9598-.013-.3138.0647-.614.2291-.898.182-.3144.4411-.5553.7755-.724.3351-.1698.713-.2265,1.1365-.1698.4223.0559.8424.2047,1.2591.4462.4589.2656.8215.5735,1.086.9252.2653.3501.4087.7243.4308,1.1223.0227.3963-.0652.7803-.261,1.1523l-.8227-.3955c.1843-.415.2129-.7934.0845-1.1336-.1275-.3415-.4306-.6499-.9065-.9255-.4964-.2874-.9108-.4062-1.2424-.3557-.3317.0507-.5726.2041-.7212.4609-.1287.2222-.1542.4521-.0776.6888.0759.2347.4011.6214.9805,1.1571.5788.5375.9601.9335,1.1429,1.1897.2631.3736.4088.7373.4326,1.0919.0246.3535-.0598.6956-.252,1.0273-.1911.33-.4638.5848-.8212.7665-.358.182-.7586.2523-1.2056.2092-.4467-.0431-.8901-.1922-1.3329-.4487-.5595-.324-.9807-.6775-1.2645-1.0593-.2849-.3827-.4388-.7991-.4632-1.2527-.0266-.4524.0754-.8881.3039-1.3087h0ZM47.3276,137.2048l2.683-6.6381.8807.3557-1.1055,2.7352,3.4305,1.3864,1.1055-2.7349.8807.3558-2.6833,6.6384-.8807-.356,1.2631-3.1246-3.4305-1.3865-1.2628,3.1247-.8807-.3561h0ZM56.6139,140.5585l4.3064-6.3456,1.0142.2372,1.2064,7.636-1.0499-.2458-.3118-2.3014-2.9359-.6871-1.2506,1.9357-.9788-.229h0ZM59.2898,138.1652l2.3757.5562-.2747-2.1028c-.0816-.6389-.1332-1.163-.159-1.5726-.2021.4317-.4346.8481-.6985,1.2517l-1.2435,1.8675h0ZM81.4714,135.5364l.9474-.072.3138,4.1229c.0547.7178.0167,1.2941-.1123,1.7286-.1306.4329-.3971.7991-.7991,1.0956-.4036.2965-.947.4714-1.635.5238-.6664.0508-1.2217-.0221-1.6634-.2211-.443-.1984-.7707-.5076-.985-.9309-.2146-.4234-.3512-1.0131-.4087-1.7693l-.3141-4.123.947-.072.3141,4.1215c.0471.6197.1403,1.0738.2772,1.3576.1372.2854.3504.498.6435.6346.2914.1384.6398.1922,1.0434.1613.6914-.0524,1.173-.248,1.4434-.5845.2699-.3382.3702-.9541.3019-1.8516l-.3141-4.1215h0ZM87.9568,141.8154l-1.6103-6.9767.9484-.2188,4.9247,4.631-1.264-5.476.8864-.2047,1.6106,6.9767-.9484.2188-4.9247-4.631,1.264,5.476-.8867.2047h0ZM98.4255,138.9016l-2.683-6.6381.8804-.3561,2.6833,6.6385-.8807.3557h0ZM105.8721,135.6183l-5.6543-5.1911.9201-.4553,3.9742,3.8393c.3178.3075.6044.6009.8558.8841-.0751-.4-.133-.8064-.1743-1.2211l-.5775-5.5197.8666-.4286.6724,7.6556-.883.4368h0ZM112.8955,131.5284l-4.142-5.8405,4.2171-2.9908.4861.6851-3.4424,2.4415,1.2725,1.7944,3.2222-2.2851.4861.6855-3.2221,2.285,1.4116,1.9902,3.5807-2.5396.4859.6852-4.3557,3.0891h0ZM120.862,125.2457l.6845-.6582-2.2039-2.2923.7906-.76c.1766-.1701.3109-.2829.4025-.3413.1315-.0751.2798-.1298.4428-.1621.1658-.0321.3909-.029.6789.011.2865.0408.6791.1194,1.1766.2398l1.715.4178.8529-.82-2.2442-.5474c-.4413-.1054-.8503-.1533-1.2254-.144-.1746.0057-.3946.051-.6593.1389.4292-.5445.6418-1.0542.6372-1.533-.0048-.4787-.1828-.9017-.5352-1.2682-.2727-.2834-.593-.4748-.9612-.5714-.3682-.097-.7163-.0766-1.0443.0606-.3282.1375-.7228.4269-1.1829.8694l-2.2875,2.1994,4.9629,5.161h0ZM118.7742,121.7041l-1.6426-1.7084,1.6313-1.5687c.381-.3662.7348-.5562,1.0624-.5686.3283-.0125.6101.1049.8445.3489.1607.167.2627.3648.3078.5944.0471.2294.0133.461-.1009.6934-.1128.2336-.3246.4995-.6367.7996l-1.4658,1.4094h0ZM126.1514,116.4045l.4521-.7708c.3172.1752.6143.2668.893.2753.2772.0074.5689-.0794.8742-.2605.3041-.1823.5754-.4388.8118-.7699.2103-.2945.3518-.5845.4246-.8725.0723-.2883.0709-.5411-.0039-.7603-.0749-.2196-.2019-.3943-.381-.5221-.1817-.1298-.3784-.1902-.5908-.1823-.2111.0088-.4498.1026-.718.2801-.1712.1131-.5128.3912-1.0244.8351-.5114.4436-.8994.7319-1.1665.8648-.3449.1732-.674.2498-.9864.2313-.3135-.0167-.6049-.1224-.872-.3132-.2956-.2112-.5108-.4918-.6468-.841-.1372-.3498-.1576-.7311-.0613-1.1475.0959-.415.2841-.8189.5641-1.211.3079-.4314.6492-.7633,1.0242-.9929.3739-.2311.76-.3382,1.1582-.3223.3966.015.7708.1391,1.1223.3696l-.4717.7812c-.3957-.2231-.7699-.2874-1.1206-.1919-.352.0947-.6879.3668-1.0074.8144-.3333.4666-.4912.8683-.4722,1.203.019.3351.1485.5894.39.7617.2089.1494.4354.1965.6783.1429.241-.0533.6565-.3405,1.2453-.866.5899-.5253,1.0205-.8671,1.2929-1.0247.3971-.2262.7727-.3371,1.1282-.3266.354.0088.6865.1256.9983.3484.3107.2217.538.517.6852.8904.1468.3736.1788.7789.0935,1.22-.0856.4405-.2758.8677-.5732,1.2841-.3758.5264-.7679.9119-1.1749,1.1579-.4082.2472-.8374.3609-1.2909.3419-.453-.0162-.8771-.1593-1.2742-.4266h0ZM133.9558,108.936l-6.196-3.5881.4759-.822,6.196,3.5881-.4759.822h0ZM137.49,101.8523l-5.8595-2.3684-.8844,2.1881-.779-.3147,2.1249-5.2571.7787.3149-.8845,2.1881,5.8598,2.3683-.356.8808h0ZM140.6761,92.6079l-2.9327-.7744-4.6947,1.6152.2911-1.1021,2.4562-.815c.4555-.1519.9065-.2866,1.3519-.4-.307-.3067-.6455-.6701-1.018-1.0873l-1.686-1.8794.282-1.0687,3.2599,3.8189,2.9327.7744-.2424.9184Z" fill="#efefef" fill-rule="evenodd" stroke-width="0"/><polygon points="137.9359 72.26 137.566 74.3225 135.4556 74.6167 137.3366 75.5887 136.9588 77.6495 138.4912 76.1882 140.3683 77.1676 139.4343 75.2922 140.9721 73.8369 138.8628 74.1391 137.9359 72.26" fill="#fff" fill-rule="evenodd" stroke-width="0"/><path d="M97.9702,12.9668c.1571.118.0235.173.6052.3144.1494.0394.6129.0709.7937.0944.7937.0865.896.0471,1.4618.4479l-.0785.9587c-2.2476.3693-4.621-2.2947-7.505-.0395-.2829.22-.8566.9273-1.3754.9273-.9666,0-.2279.0314-.5187-.2515-1.2966-1.4933,2.499-1.6109,3.3242-2.2396.0156-1.0375-.7937-3.1828.7152-3.5836.5737.9116.157,2.7269,1.5244,2.8684.0236-.0629.055-.22.055-.1885.008.0315.0471-.1415.0394-.1809-.047-.9351-.3693-.6366-.5266-1.328-.1965-.8407.0156-1.3674.2987-1.8153.8723.3773,1.116,1.2416,1.1631,1.9726l.1414.6052c1.4775-.6443.5738-2.0352,2.727-2.2082.3379.9587,0,1.7133-.6917,2.2791-.8487.7072-1.281.7072-1.6347.9196-.5108.2987-.1965.0549-.5188.4478l.0003-.0003Z" fill="#fff" fill-rule="evenodd" stroke-width="0"/><path d="M55.8633,15.2615c.4008-1.6739-.11-1.4224-.173-1.5245-.5343.9272.1336.7387-.5108,2.1612l-.9116.1179c-.3458-.5973-.157-.5029-.7152-.9196-1.1395.3694-.6287.7781-1.6188,1.2025l-.6129-1.9412c.5188-.2514,2.6249-.4008,2.5464-2.4599-.0629-1.7289-1.1945-3.3086.5817-3.5836.4637.6208.4478,1.3595.5657,2.3341.2829,2.397.4009,1.8782,1.0061,1.7997l.1099-.5579c.0156-.0708.008-.1335.0156-.2043l.2515-.7543,1.4224,1.3989c-.2988.5816-.4558.5893-.8722.9666l.0156,1.163c.0629,3.1748-3.9138,8.0632-5.5168,8.9119.0629-1.3281,3.6779-5.0454,4.4166-8.1102l-.0002-.0003Z" fill="#fff" fill-rule="evenodd" stroke-width="0"/><path d="M49.8277,10.3028c1.171-.4322,2.7114.7782,1.9097,1.9177-1.1789.2673-2.3655-.6443-1.9097-1.9177Z" fill="#fff" fill-rule="evenodd" stroke-width="0"/><path d="M50.5194,19.5446c-.9037-1.0374-.4638-2.0511-.5737-3.4735-1.171-.8567-1.7368-.3144-1.7289-2.287,3.0492-.0471,2.2555,2.0432,2.334,3.0963.7937-.165,1.2966-.4323,1.0766.5266-.1335.5658-.1729,1.5324-.4087,2.0277l-.6993.1099Z" fill="#fff" fill-rule="evenodd" stroke-width="0"/><path d="M94.8583,16.1969c-.0394-.0235-.1099-.055-.1493-.0785l-.6288-.3773c.1571-1.3045,3.0493-.4873,3.6386-.1494-.2909,1.8312-1.1316.3538-1.6424,1.7683.5423.3299.9587.3064,1.6424.4402-.1571,2.1376-.5579.0235-1.7053,2.2791-.4638.9272-1.0452,1.6109-2.397,1.4459-.6917-.6522-1.1475-2.0982-.9902-3.3792l2.0827-.2514.1493-1.6974v-.0003h0ZM94.0026,19.7255c.8722.1258.0785.047.4402-.0709.3064-1.0295-.7387-1.2965-.8802-.0864.11.047.4323.157.4402.157l-.0002.0003Z" fill="#fff" fill-rule="evenodd" stroke-width="0"/><path d="M123.6921,31.8357c1.1474-.1259,1.7288,1.1239,2.8134-.4638.1179-.7937-.5658-.9745-.3379-1.4303.3223-.6367,1.0924-.0315,1.2965.3378.7858,1.3595-.7072,2.3811-1.0451,3.1748.8722.4794.4008.0236,1.4145.0786.2594.8172-.0235.6128.5108,1.2654,1.8388-.6758,1.1475-1.6189,2.3026-1.9018,1.2654.9901.2593,1.9882-.2359,2.8998.3144,1.1081,1.179,1.3281.5267,2.3576-.9116,1.273-1.7603-.165-4.1417-.0315-.102.4794-.2673.8646-.5108,1.226l-1.7212-.0629-.3929.6758c-.0079-.0315-.047.102-.0785.1494-1.116.4087-1.4853.1493-1.3045,1.7682,1.5483,1.328,1.4695.3144,3.4027.4873.0315,3.2536-3.0492,1.6974-3.835.6993-.9981-1.273-.6128-2.1611-.5267-3.6544l-1.8547-.0944c.0236-1.3125.2829-1.2339,1.556-1.1866,2.0041.0709,1.0686-.5108,1.0845-1.0925.0471-1.4539,1.6109.2988,2.0906.5029.8881.3773.5578-.0315.6366-.0865.6523-1.0216-1.0295-1.3674-1.2101-2.9783.3064-.4323.385-.3929.6993-.8096-1.0531-1.3674-3.0571.3144-3.9529,1.0531l-2.7034,2.224c-1.0451.7937-.8722.1885-.9666.1494-.3694-1.0451.8172-1.7288,1.438-2.2632l5.0454-2.9942.0003.0006h0ZM128.9081,36.4369c-.0079,0-2.4834-.7152-2.6405-.7467.11.9431.1415,1.0687,1.0846,1.3045,1.0766.275,1.328.2594,1.5559-.5578Z" fill="#fff" fill-rule="evenodd" stroke-width="0"/><path d="M28.1691,43.1839l.1258.1729s-.0394-.0315-.0394-.0471c0-.055-.055-.1649-.0864-.1258Z" fill="#fff" fill-rule="evenodd" stroke-width="0"/><path d="M28.4049,43.2389l-.1967.3141c-1.4774.9666-2.2397-.0471-2.507-1.3831-.3773-1.8782-.8487-1.1551-2.4599-.7387l-1.171-1.1395c-.1729-2.7034.6758-2.3735-1.1475-4.2517-.5972-.6208-2.5619-2.0117-2.6169-2.6328.33-.3379.4243-.5658,1.5718-.4088.8331.118.5579.385,1.2966.0471.8487-.6758-.33-1.4933.1335-2.8843.4793-.2279.6993-.3299,1.3439-.2987,2.0041.0864,1.2416,1.7368.6993,4.0787-.6052,2.6249-.7622,2.5149.11,2.8293,0,0,1.1945-2.8213,2.0747-1.2889.2514.4323-1.6033,4.6601,1.0924,5.1474.4164-1.7524-.4714-1.4695-.0864-3.3321.8251-.8172,3.2927-1.8468,4.3772-.6602-.2435,1.6583-2.1532,1.4774-3.5441,2.1455-.0394,1.556.9666,2.46,1.0295,4.4558l.0006.0009Z" fill="#fff" fill-rule="evenodd" stroke-width="0"/><polygon points="12.0252 72.26 12.3951 74.3225 14.5055 74.6167 12.6244 75.5887 13.0023 77.6495 11.4699 76.1882 9.5928 77.1676 10.5268 75.2922 8.989 73.8369 11.0982 74.1391 12.0252 72.26" fill="#fff" fill-rule="evenodd" stroke-width="0"/></g></svg>